<svg width="1070" height="190" viewBox="0 0 1070 190" fill="none" xmlns="http://www.w3.org/2000/svg">
<mask id="path-1-outside-1_19_3" maskUnits="userSpaceOnUse" x="0" y="0.600098" width="1070" height="190" fill="black">
<rect fill="white" y="0.600098" width="1070" height="190"/>
<path d="M10.6 146H1V4.0001H10.6V69.4001H93.2V4.0001H102.8V146H93.2V78.2001H10.6V146Z"/>
<path d="M142.291 134.2C133.357 124.6 128.891 112.533 128.891 98.0001C128.891 83.4668 133.357 71.4668 142.291 62.0001C151.357 52.4001 162.757 47.6001 176.491 47.6001C190.224 47.6001 201.557 52.4001 210.491 62.0001C219.557 71.4668 224.091 83.4668 224.091 98.0001C224.091 112.533 219.557 124.6 210.491 134.2C201.557 143.667 190.224 148.4 176.491 148.4C162.757 148.4 151.357 143.667 142.291 134.2ZM148.891 67.8001C141.824 75.6668 138.291 85.7334 138.291 98.0001C138.291 110.267 141.824 120.333 148.891 128.2C156.091 136.067 165.291 140 176.491 140C187.691 140 196.824 136.067 203.891 128.2C211.091 120.333 214.691 110.267 214.691 98.0001C214.691 85.7334 211.091 75.6668 203.891 67.8001C196.824 59.9334 187.691 56.0001 176.491 56.0001C165.291 56.0001 156.091 59.9334 148.891 67.8001Z"/>
<path d="M293.023 48.6001V56.6001H285.823C277.023 56.6001 269.89 59.5334 264.423 65.4001C259.09 71.1334 256.423 78.5334 256.423 87.6001V146H247.223V50.0001H255.823L256.623 65.4001C258.49 59.9334 261.89 55.6001 266.823 52.4001C271.89 49.2001 277.823 47.6001 284.623 47.6001C287.557 47.6001 290.357 47.9334 293.023 48.6001Z"/>
<path d="M303.663 120H312.663C312.663 126.133 314.796 131 319.062 134.6C323.329 138.2 329.196 140 336.663 140C344.796 140 351.196 138.333 355.862 135C360.529 131.533 362.863 126.867 362.863 121C362.863 116.333 361.529 112.667 358.862 110C356.329 107.333 351.996 105.2 345.862 103.6L329.663 99.4001C313.529 95.2668 305.462 86.8668 305.462 74.2001C305.462 66.2001 308.462 59.8001 314.462 55.0001C320.596 50.0668 328.596 47.6001 338.462 47.6001C348.329 47.6001 356.196 50.1334 362.062 55.2001C367.929 60.1334 370.996 66.9334 371.263 75.6001H362.263C361.996 69.4668 359.729 64.6668 355.462 61.2001C351.329 57.7334 345.662 56.0001 338.462 56.0001C330.729 56.0001 324.796 57.6001 320.663 60.8001C316.663 63.8668 314.663 68.3334 314.663 74.2001C314.663 82.6001 320.396 88.2668 331.862 91.2001L347.862 95.4001C356.262 97.6668 362.396 100.867 366.263 105C370.129 109 372.062 114.333 372.062 121C372.062 129.267 368.862 135.933 362.462 141C356.062 145.933 347.596 148.4 337.062 148.4C326.796 148.4 318.663 145.867 312.663 140.8C306.663 135.6 303.663 128.667 303.663 120Z"/>
<path d="M435.638 148.4C421.771 148.4 410.571 143.8 402.038 134.6C393.638 125.4 389.438 113.267 389.438 98.2001C389.438 83.1334 393.571 70.9334 401.837 61.6001C410.237 52.2668 421.104 47.6001 434.438 47.6001C446.971 47.6001 457.104 51.7334 464.837 60.0001C472.704 68.1334 476.638 78.7334 476.638 91.8001V98.2001H398.638C399.038 111.267 402.437 121.533 408.837 129C415.371 136.333 424.304 140 435.638 140C452.838 140 463.371 132.8 467.238 118.4H476.638C471.038 138.4 457.371 148.4 435.638 148.4ZM434.438 56.0001C424.704 56.0001 416.571 59.1334 410.038 65.4001C403.638 71.6668 399.904 80.0668 398.837 90.6001H467.238C467.238 80.2001 464.237 71.8668 458.237 65.6001C452.237 59.2001 444.304 56.0001 434.438 56.0001Z"/>
<path d="M568.217 146H558.617V4.0001H611.017C624.484 4.0001 635.151 7.6001 643.017 14.8001C651.017 22.0001 655.017 31.6668 655.017 43.8001C655.017 54.2001 652.284 62.9334 646.817 70.0001C641.351 76.9334 633.884 81.4001 624.417 83.4001L656.217 146H645.417L614.417 84.6001H568.217V146ZM568.217 12.8001V75.8001H611.417C622.084 75.8001 630.35 73.0001 636.217 67.4001C642.217 61.8001 645.217 54.0668 645.217 44.2001C645.217 34.2001 642.151 26.4668 636.017 21.0001C629.884 15.5334 621.551 12.8001 611.017 12.8001H568.217Z"/>
<path d="M691.608 18.2001C690.008 19.8001 688.074 20.6001 685.808 20.6001C683.541 20.6001 681.541 19.8001 679.808 18.2001C678.208 16.6001 677.408 14.6668 677.408 12.4001C677.408 10.1334 678.208 8.13343 679.808 6.40011C681.541 4.66677 683.541 3.80011 685.808 3.80011C688.074 3.80011 690.008 4.66677 691.608 6.40011C693.341 8.13343 694.208 10.1334 694.208 12.4001C694.208 14.5334 693.341 16.4668 691.608 18.2001ZM681.208 146V50.0001H690.408V146H681.208Z"/>
<path d="M757.856 148.4C744.123 148.4 733.323 143.667 725.456 134.2C717.59 124.733 713.656 112.667 713.656 98.0001C713.656 83.3334 717.59 71.2668 725.456 61.8001C733.323 52.3334 744.123 47.6001 757.856 47.6001C775.723 47.6001 788.123 55.3334 795.056 70.8001V1.6001H804.256V146H796.856L795.456 124.4C788.39 140.4 775.856 148.4 757.856 148.4ZM732.456 128.4C738.856 136.133 747.656 140 758.856 140C770.056 140 778.856 136.133 785.256 128.4C791.656 120.667 794.856 110.533 794.856 98.0001C794.856 85.6001 791.656 75.5334 785.256 67.8001C778.856 59.9334 770.056 56.0001 758.856 56.0001C747.656 56.0001 738.856 59.9334 732.456 67.8001C726.19 75.5334 723.056 85.6001 723.056 98.0001C723.056 110.533 726.19 120.667 732.456 128.4Z"/>
<path d="M845.123 18.2001C843.523 19.8001 841.59 20.6001 839.323 20.6001C837.057 20.6001 835.057 19.8001 833.323 18.2001C831.723 16.6001 830.923 14.6668 830.923 12.4001C830.923 10.1334 831.723 8.13343 833.323 6.40011C835.057 4.66677 837.057 3.80011 839.323 3.80011C841.59 3.80011 843.523 4.66677 845.123 6.40011C846.857 8.13343 847.723 10.1334 847.723 12.4001C847.723 14.5334 846.857 16.4668 845.123 18.2001ZM834.723 146V50.0001H843.923V146H834.723Z"/>
<path d="M883.572 146H874.372V50.0001H881.772L883.772 68.6001C886.972 61.9334 891.572 56.8001 897.572 53.2001C903.705 49.4668 910.439 47.6001 917.772 47.6001C942.705 47.6001 955.172 60.9334 955.172 87.6001V146H945.972V89.4001C945.972 77.2668 943.505 68.6668 938.572 63.6001C933.772 58.5334 926.772 56.0001 917.572 56.0001C906.905 56.0001 898.572 59.6668 892.572 67.0001C886.572 74.3334 883.572 84.1334 883.572 96.4001V146Z"/>
<path d="M977.133 95.0001C977.133 81.6668 981.133 70.4668 989.133 61.4001C997.266 52.2001 1008.2 47.6001 1021.93 47.6001C1040.33 47.6001 1052.87 55.8668 1059.53 72.4001L1060.73 50.0001H1068.13V144C1068.13 157.467 1064 168.267 1055.73 176.4C1047.6 184.667 1036.87 188.8 1023.53 188.8C1011.93 188.8 1002.2 185.667 994.333 179.4C986.599 173.267 981.733 164.733 979.733 153.8H988.733C990.466 162.2 994.4 168.733 1000.53 173.4C1006.8 178.067 1014.53 180.4 1023.73 180.4C1034.4 180.4 1042.93 177.067 1049.33 170.4C1055.87 163.733 1059.13 154.933 1059.13 144V118C1055.8 125.733 1050.73 131.733 1043.93 136C1037.27 140.267 1029.6 142.4 1020.93 142.4C1007.6 142.4 996.933 137.8 988.933 128.6C981.066 119.4 977.133 108.2 977.133 95.0001ZM995.933 67.2001C989.666 74.6668 986.533 83.9334 986.533 95.0001C986.533 106.067 989.666 115.333 995.933 122.8C1002.2 130.267 1010.73 134 1021.53 134C1032.73 134 1041.53 130.4 1047.93 123.2C1054.33 115.867 1057.53 106.4 1057.53 94.8001C1057.53 83.3334 1054.4 74.0001 1048.13 66.8001C1041.87 59.6001 1033.13 56.0001 1021.93 56.0001C1011 56.0001 1002.33 59.7334 995.933 67.2001Z"/>
</mask>
<path d="M10.6 146H1V4.0001H10.6V69.4001H93.2V4.0001H102.8V146H93.2V78.2001H10.6V146Z" fill="black"/>
<path d="M142.291 134.2C133.357 124.6 128.891 112.533 128.891 98.0001C128.891 83.4668 133.357 71.4668 142.291 62.0001C151.357 52.4001 162.757 47.6001 176.491 47.6001C190.224 47.6001 201.557 52.4001 210.491 62.0001C219.557 71.4668 224.091 83.4668 224.091 98.0001C224.091 112.533 219.557 124.6 210.491 134.2C201.557 143.667 190.224 148.4 176.491 148.4C162.757 148.4 151.357 143.667 142.291 134.2ZM148.891 67.8001C141.824 75.6668 138.291 85.7334 138.291 98.0001C138.291 110.267 141.824 120.333 148.891 128.2C156.091 136.067 165.291 140 176.491 140C187.691 140 196.824 136.067 203.891 128.2C211.091 120.333 214.691 110.267 214.691 98.0001C214.691 85.7334 211.091 75.6668 203.891 67.8001C196.824 59.9334 187.691 56.0001 176.491 56.0001C165.291 56.0001 156.091 59.9334 148.891 67.8001Z" fill="black"/>
<path d="M293.023 48.6001V56.6001H285.823C277.023 56.6001 269.89 59.5334 264.423 65.4001C259.09 71.1334 256.423 78.5334 256.423 87.6001V146H247.223V50.0001H255.823L256.623 65.4001C258.49 59.9334 261.89 55.6001 266.823 52.4001C271.89 49.2001 277.823 47.6001 284.623 47.6001C287.557 47.6001 290.357 47.9334 293.023 48.6001Z" fill="black"/>
<path d="M303.663 120H312.663C312.663 126.133 314.796 131 319.062 134.6C323.329 138.2 329.196 140 336.663 140C344.796 140 351.196 138.333 355.862 135C360.529 131.533 362.863 126.867 362.863 121C362.863 116.333 361.529 112.667 358.862 110C356.329 107.333 351.996 105.2 345.862 103.6L329.663 99.4001C313.529 95.2668 305.462 86.8668 305.462 74.2001C305.462 66.2001 308.462 59.8001 314.462 55.0001C320.596 50.0668 328.596 47.6001 338.462 47.6001C348.329 47.6001 356.196 50.1334 362.062 55.2001C367.929 60.1334 370.996 66.9334 371.263 75.6001H362.263C361.996 69.4668 359.729 64.6668 355.462 61.2001C351.329 57.7334 345.662 56.0001 338.462 56.0001C330.729 56.0001 324.796 57.6001 320.663 60.8001C316.663 63.8668 314.663 68.3334 314.663 74.2001C314.663 82.6001 320.396 88.2668 331.862 91.2001L347.862 95.4001C356.262 97.6668 362.396 100.867 366.263 105C370.129 109 372.062 114.333 372.062 121C372.062 129.267 368.862 135.933 362.462 141C356.062 145.933 347.596 148.4 337.062 148.4C326.796 148.4 318.663 145.867 312.663 140.8C306.663 135.6 303.663 128.667 303.663 120Z" fill="black"/>
<path d="M435.638 148.4C421.771 148.4 410.571 143.8 402.038 134.6C393.638 125.4 389.438 113.267 389.438 98.2001C389.438 83.1334 393.571 70.9334 401.837 61.6001C410.237 52.2668 421.104 47.6001 434.438 47.6001C446.971 47.6001 457.104 51.7334 464.837 60.0001C472.704 68.1334 476.638 78.7334 476.638 91.8001V98.2001H398.638C399.038 111.267 402.437 121.533 408.837 129C415.371 136.333 424.304 140 435.638 140C452.838 140 463.371 132.8 467.238 118.4H476.638C471.038 138.4 457.371 148.4 435.638 148.4ZM434.438 56.0001C424.704 56.0001 416.571 59.1334 410.038 65.4001C403.638 71.6668 399.904 80.0668 398.837 90.6001H467.238C467.238 80.2001 464.237 71.8668 458.237 65.6001C452.237 59.2001 444.304 56.0001 434.438 56.0001Z" fill="black"/>
<path d="M568.217 146H558.617V4.0001H611.017C624.484 4.0001 635.151 7.6001 643.017 14.8001C651.017 22.0001 655.017 31.6668 655.017 43.8001C655.017 54.2001 652.284 62.9334 646.817 70.0001C641.351 76.9334 633.884 81.4001 624.417 83.4001L656.217 146H645.417L614.417 84.6001H568.217V146ZM568.217 12.8001V75.8001H611.417C622.084 75.8001 630.35 73.0001 636.217 67.4001C642.217 61.8001 645.217 54.0668 645.217 44.2001C645.217 34.2001 642.151 26.4668 636.017 21.0001C629.884 15.5334 621.551 12.8001 611.017 12.8001H568.217Z" fill="black"/>
<path d="M691.608 18.2001C690.008 19.8001 688.074 20.6001 685.808 20.6001C683.541 20.6001 681.541 19.8001 679.808 18.2001C678.208 16.6001 677.408 14.6668 677.408 12.4001C677.408 10.1334 678.208 8.13343 679.808 6.40011C681.541 4.66677 683.541 3.80011 685.808 3.80011C688.074 3.80011 690.008 4.66677 691.608 6.40011C693.341 8.13343 694.208 10.1334 694.208 12.4001C694.208 14.5334 693.341 16.4668 691.608 18.2001ZM681.208 146V50.0001H690.408V146H681.208Z" fill="black"/>
<path d="M757.856 148.4C744.123 148.4 733.323 143.667 725.456 134.2C717.59 124.733 713.656 112.667 713.656 98.0001C713.656 83.3334 717.59 71.2668 725.456 61.8001C733.323 52.3334 744.123 47.6001 757.856 47.6001C775.723 47.6001 788.123 55.3334 795.056 70.8001V1.6001H804.256V146H796.856L795.456 124.4C788.39 140.4 775.856 148.4 757.856 148.4ZM732.456 128.4C738.856 136.133 747.656 140 758.856 140C770.056 140 778.856 136.133 785.256 128.4C791.656 120.667 794.856 110.533 794.856 98.0001C794.856 85.6001 791.656 75.5334 785.256 67.8001C778.856 59.9334 770.056 56.0001 758.856 56.0001C747.656 56.0001 738.856 59.9334 732.456 67.8001C726.19 75.5334 723.056 85.6001 723.056 98.0001C723.056 110.533 726.19 120.667 732.456 128.4Z" fill="black"/>
<path d="M845.123 18.2001C843.523 19.8001 841.59 20.6001 839.323 20.6001C837.057 20.6001 835.057 19.8001 833.323 18.2001C831.723 16.6001 830.923 14.6668 830.923 12.4001C830.923 10.1334 831.723 8.13343 833.323 6.40011C835.057 4.66677 837.057 3.80011 839.323 3.80011C841.59 3.80011 843.523 4.66677 845.123 6.40011C846.857 8.13343 847.723 10.1334 847.723 12.4001C847.723 14.5334 846.857 16.4668 845.123 18.2001ZM834.723 146V50.0001H843.923V146H834.723Z" fill="black"/>
<path d="M883.572 146H874.372V50.0001H881.772L883.772 68.6001C886.972 61.9334 891.572 56.8001 897.572 53.2001C903.705 49.4668 910.439 47.6001 917.772 47.6001C942.705 47.6001 955.172 60.9334 955.172 87.6001V146H945.972V89.4001C945.972 77.2668 943.505 68.6668 938.572 63.6001C933.772 58.5334 926.772 56.0001 917.572 56.0001C906.905 56.0001 898.572 59.6668 892.572 67.0001C886.572 74.3334 883.572 84.1334 883.572 96.4001V146Z" fill="black"/>
<path d="M977.133 95.0001C977.133 81.6668 981.133 70.4668 989.133 61.4001C997.266 52.2001 1008.2 47.6001 1021.93 47.6001C1040.33 47.6001 1052.87 55.8668 1059.53 72.4001L1060.73 50.0001H1068.13V144C1068.13 157.467 1064 168.267 1055.73 176.4C1047.6 184.667 1036.87 188.8 1023.53 188.8C1011.93 188.8 1002.2 185.667 994.333 179.4C986.599 173.267 981.733 164.733 979.733 153.8H988.733C990.466 162.2 994.4 168.733 1000.53 173.4C1006.8 178.067 1014.53 180.4 1023.73 180.4C1034.4 180.4 1042.93 177.067 1049.33 170.4C1055.87 163.733 1059.13 154.933 1059.13 144V118C1055.8 125.733 1050.73 131.733 1043.93 136C1037.27 140.267 1029.6 142.4 1020.93 142.4C1007.6 142.4 996.933 137.8 988.933 128.6C981.066 119.4 977.133 108.2 977.133 95.0001ZM995.933 67.2001C989.666 74.6668 986.533 83.9334 986.533 95.0001C986.533 106.067 989.666 115.333 995.933 122.8C1002.2 130.267 1010.73 134 1021.53 134C1032.73 134 1041.53 130.4 1047.93 123.2C1054.33 115.867 1057.53 106.4 1057.53 94.8001C1057.53 83.3334 1054.4 74.0001 1048.13 66.8001C1041.87 59.6001 1033.13 56.0001 1021.93 56.0001C1011 56.0001 1002.33 59.7334 995.933 67.2001Z" fill="black"/>
<path d="M10.6 146H1V4.0001H10.6V69.4001H93.2V4.0001H102.8V146H93.2V78.2001H10.6V146Z" stroke="black" stroke-width="2" mask="url(#path-1-outside-1_19_3)"/>
<path d="M142.291 134.2C133.357 124.6 128.891 112.533 128.891 98.0001C128.891 83.4668 133.357 71.4668 142.291 62.0001C151.357 52.4001 162.757 47.6001 176.491 47.6001C190.224 47.6001 201.557 52.4001 210.491 62.0001C219.557 71.4668 224.091 83.4668 224.091 98.0001C224.091 112.533 219.557 124.6 210.491 134.2C201.557 143.667 190.224 148.4 176.491 148.4C162.757 148.4 151.357 143.667 142.291 134.2ZM148.891 67.8001C141.824 75.6668 138.291 85.7334 138.291 98.0001C138.291 110.267 141.824 120.333 148.891 128.2C156.091 136.067 165.291 140 176.491 140C187.691 140 196.824 136.067 203.891 128.2C211.091 120.333 214.691 110.267 214.691 98.0001C214.691 85.7334 211.091 75.6668 203.891 67.8001C196.824 59.9334 187.691 56.0001 176.491 56.0001C165.291 56.0001 156.091 59.9334 148.891 67.8001Z" stroke="black" stroke-width="2" mask="url(#path-1-outside-1_19_3)"/>
<path d="M293.023 48.6001V56.6001H285.823C277.023 56.6001 269.89 59.5334 264.423 65.4001C259.09 71.1334 256.423 78.5334 256.423 87.6001V146H247.223V50.0001H255.823L256.623 65.4001C258.49 59.9334 261.89 55.6001 266.823 52.4001C271.89 49.2001 277.823 47.6001 284.623 47.6001C287.557 47.6001 290.357 47.9334 293.023 48.6001Z" stroke="black" stroke-width="2" mask="url(#path-1-outside-1_19_3)"/>
<path d="M303.663 120H312.663C312.663 126.133 314.796 131 319.062 134.6C323.329 138.2 329.196 140 336.663 140C344.796 140 351.196 138.333 355.862 135C360.529 131.533 362.863 126.867 362.863 121C362.863 116.333 361.529 112.667 358.862 110C356.329 107.333 351.996 105.2 345.862 103.6L329.663 99.4001C313.529 95.2668 305.462 86.8668 305.462 74.2001C305.462 66.2001 308.462 59.8001 314.462 55.0001C320.596 50.0668 328.596 47.6001 338.462 47.6001C348.329 47.6001 356.196 50.1334 362.062 55.2001C367.929 60.1334 370.996 66.9334 371.263 75.6001H362.263C361.996 69.4668 359.729 64.6668 355.462 61.2001C351.329 57.7334 345.662 56.0001 338.462 56.0001C330.729 56.0001 324.796 57.6001 320.663 60.8001C316.663 63.8668 314.663 68.3334 314.663 74.2001C314.663 82.6001 320.396 88.2668 331.862 91.2001L347.862 95.4001C356.262 97.6668 362.396 100.867 366.263 105C370.129 109 372.062 114.333 372.062 121C372.062 129.267 368.862 135.933 362.462 141C356.062 145.933 347.596 148.4 337.062 148.4C326.796 148.4 318.663 145.867 312.663 140.8C306.663 135.6 303.663 128.667 303.663 120Z" stroke="black" stroke-width="2" mask="url(#path-1-outside-1_19_3)"/>
<path d="M435.638 148.4C421.771 148.4 410.571 143.8 402.038 134.6C393.638 125.4 389.438 113.267 389.438 98.2001C389.438 83.1334 393.571 70.9334 401.837 61.6001C410.237 52.2668 421.104 47.6001 434.438 47.6001C446.971 47.6001 457.104 51.7334 464.837 60.0001C472.704 68.1334 476.638 78.7334 476.638 91.8001V98.2001H398.638C399.038 111.267 402.437 121.533 408.837 129C415.371 136.333 424.304 140 435.638 140C452.838 140 463.371 132.8 467.238 118.4H476.638C471.038 138.4 457.371 148.4 435.638 148.4ZM434.438 56.0001C424.704 56.0001 416.571 59.1334 410.038 65.4001C403.638 71.6668 399.904 80.0668 398.837 90.6001H467.238C467.238 80.2001 464.237 71.8668 458.237 65.6001C452.237 59.2001 444.304 56.0001 434.438 56.0001Z" stroke="black" stroke-width="2" mask="url(#path-1-outside-1_19_3)"/>
<path d="M568.217 146H558.617V4.0001H611.017C624.484 4.0001 635.151 7.6001 643.017 14.8001C651.017 22.0001 655.017 31.6668 655.017 43.8001C655.017 54.2001 652.284 62.9334 646.817 70.0001C641.351 76.9334 633.884 81.4001 624.417 83.4001L656.217 146H645.417L614.417 84.6001H568.217V146ZM568.217 12.8001V75.8001H611.417C622.084 75.8001 630.35 73.0001 636.217 67.4001C642.217 61.8001 645.217 54.0668 645.217 44.2001C645.217 34.2001 642.151 26.4668 636.017 21.0001C629.884 15.5334 621.551 12.8001 611.017 12.8001H568.217Z" stroke="black" stroke-width="2" mask="url(#path-1-outside-1_19_3)"/>
<path d="M691.608 18.2001C690.008 19.8001 688.074 20.6001 685.808 20.6001C683.541 20.6001 681.541 19.8001 679.808 18.2001C678.208 16.6001 677.408 14.6668 677.408 12.4001C677.408 10.1334 678.208 8.13343 679.808 6.40011C681.541 4.66677 683.541 3.80011 685.808 3.80011C688.074 3.80011 690.008 4.66677 691.608 6.40011C693.341 8.13343 694.208 10.1334 694.208 12.4001C694.208 14.5334 693.341 16.4668 691.608 18.2001ZM681.208 146V50.0001H690.408V146H681.208Z" stroke="black" stroke-width="2" mask="url(#path-1-outside-1_19_3)"/>
<path d="M757.856 148.4C744.123 148.4 733.323 143.667 725.456 134.2C717.59 124.733 713.656 112.667 713.656 98.0001C713.656 83.3334 717.59 71.2668 725.456 61.8001C733.323 52.3334 744.123 47.6001 757.856 47.6001C775.723 47.6001 788.123 55.3334 795.056 70.8001V1.6001H804.256V146H796.856L795.456 124.4C788.39 140.4 775.856 148.4 757.856 148.4ZM732.456 128.4C738.856 136.133 747.656 140 758.856 140C770.056 140 778.856 136.133 785.256 128.4C791.656 120.667 794.856 110.533 794.856 98.0001C794.856 85.6001 791.656 75.5334 785.256 67.8001C778.856 59.9334 770.056 56.0001 758.856 56.0001C747.656 56.0001 738.856 59.9334 732.456 67.8001C726.19 75.5334 723.056 85.6001 723.056 98.0001C723.056 110.533 726.19 120.667 732.456 128.4Z" stroke="black" stroke-width="2" mask="url(#path-1-outside-1_19_3)"/>
<path d="M845.123 18.2001C843.523 19.8001 841.59 20.6001 839.323 20.6001C837.057 20.6001 835.057 19.8001 833.323 18.2001C831.723 16.6001 830.923 14.6668 830.923 12.4001C830.923 10.1334 831.723 8.13343 833.323 6.40011C835.057 4.66677 837.057 3.80011 839.323 3.80011C841.59 3.80011 843.523 4.66677 845.123 6.40011C846.857 8.13343 847.723 10.1334 847.723 12.4001C847.723 14.5334 846.857 16.4668 845.123 18.2001ZM834.723 146V50.0001H843.923V146H834.723Z" stroke="black" stroke-width="2" mask="url(#path-1-outside-1_19_3)"/>
<path d="M883.572 146H874.372V50.0001H881.772L883.772 68.6001C886.972 61.9334 891.572 56.8001 897.572 53.2001C903.705 49.4668 910.439 47.6001 917.772 47.6001C942.705 47.6001 955.172 60.9334 955.172 87.6001V146H945.972V89.4001C945.972 77.2668 943.505 68.6668 938.572 63.6001C933.772 58.5334 926.772 56.0001 917.572 56.0001C906.905 56.0001 898.572 59.6668 892.572 67.0001C886.572 74.3334 883.572 84.1334 883.572 96.4001V146Z" stroke="black" stroke-width="2" mask="url(#path-1-outside-1_19_3)"/>
<path d="M977.133 95.0001C977.133 81.6668 981.133 70.4668 989.133 61.4001C997.266 52.2001 1008.2 47.6001 1021.93 47.6001C1040.33 47.6001 1052.87 55.8668 1059.53 72.4001L1060.73 50.0001H1068.13V144C1068.13 157.467 1064 168.267 1055.73 176.4C1047.6 184.667 1036.87 188.8 1023.53 188.8C1011.93 188.8 1002.2 185.667 994.333 179.4C986.599 173.267 981.733 164.733 979.733 153.8H988.733C990.466 162.2 994.4 168.733 1000.53 173.4C1006.8 178.067 1014.53 180.4 1023.73 180.4C1034.4 180.4 1042.93 177.067 1049.33 170.4C1055.87 163.733 1059.13 154.933 1059.13 144V118C1055.8 125.733 1050.73 131.733 1043.93 136C1037.27 140.267 1029.6 142.4 1020.93 142.4C1007.6 142.4 996.933 137.8 988.933 128.6C981.066 119.4 977.133 108.2 977.133 95.0001ZM995.933 67.2001C989.666 74.6668 986.533 83.9334 986.533 95.0001C986.533 106.067 989.666 115.333 995.933 122.8C1002.2 130.267 1010.73 134 1021.53 134C1032.73 134 1041.53 130.4 1047.93 123.2C1054.33 115.867 1057.53 106.4 1057.53 94.8001C1057.53 83.3334 1054.4 74.0001 1048.13 66.8001C1041.87 59.6001 1033.13 56.0001 1021.93 56.0001C1011 56.0001 1002.33 59.7334 995.933 67.2001Z" stroke="black" stroke-width="2" mask="url(#path-1-outside-1_19_3)"/>
</svg>
